<?xml version="1.0" encoding="utf-8"?>
<!-- Generator: Adobe Illustrator 16.0.0, SVG Export Plug-In . SVG Version: 6.00 Build 0)  -->
<!DOCTYPE svg PUBLIC "-//W3C//DTD SVG 1.1//EN" "http://www.w3.org/Graphics/SVG/1.1/DTD/svg11.dtd">
<svg id="map" width="768px" height="1205px" version="1.1" xmlns="http://www.w3.org/2000/svg" xml:space="preserve" xmlns:xlink="http://www.w3.org/1999/xlink" x="0px" y="0px" viewbox="0 0 768 1205" style="zoom: 1;">
<polygon class="ground" fill="#222" id="Ground" points="492.318,4.208 170.682,4.208 34.617,662.648 164.585,1207.459 840.75,1207.459  "></polygon><path class="fountain_grounds" id="Fountain_1" d="M316.333,486.167l-20.195-5.789   c0,0,6.95-25.355,43.339-16.021l-7.311,15.144C332.167,479.5,321.833,475,316.333,486.167z"></path><path class="fountain_grounds" id="Fountain_3" d="M337.337,501.859l14.5,7.833c0,0-5.587,17.373-20.837,11.141   l3.837-5.475l-30.573-16.592l-13.653-2.442c0,0,0.722-10.974,4.222-11.974l20.17,5.675   C315.004,490.025,317.527,509.184,337.337,501.859z"></path><path class="fountain_grounds" id="Fountain_2" d="M336.12,481.167l7.88-14.458   c0,0,27.007,13.204,10.733,38.767l-15.256-7.26C339.478,498.215,345.167,486.167,336.12,481.167z"></path><path class="pathway" id="MM_Stairs" d="M527,989.167L511,966.5l48.75-59.822l3.83,3.307l10.782-12.932L552,879.25l-10.25,12.5l5.791,5.334    l-19.076,20.293L482,895l-14.5-43.334c0,0-30.233,5.095-33.566,5.643l68.734,149.191L573,1026l65,32l10-16.5l-45-27l12.433-13.126    l-11.59-14.065L583,1006L527,989.167z M484.744,915.503l31.848,16.997L501.5,948L484.744,915.503z"></path><path class="Building" fill="#ccc" id="Main_gate" d="M169.739,196.357l3.5-6l-15.504-7.335l-27.333,40.665l12.392,7.498l4.446-6.328   c0,0,17.788,4.134,63.788,34.801L246.401,309l32-10.667l-42.329-53.979L169.739,196.357z"></path><polygon class="Building" fill="#ccc" id="Silang_PrinceBernhard" points="204.401,464.082 176.968,454.535 178.914,448.914 158.399,441.285 150,465.954 153.431,467.242    130.219,520.815 151.544,528.863 174.323,475.083 157.013,468.586 197.383,483.738  "></polygon><polygon class="Building" fill="#ccc" id="Perfecto-aden" points="474.514,302.478 498.25,316.25 476.5,354.25 464.066,347.042 440,384.743      427.532,376.681"></polygon><polygon class="pathway" id="AdenPath" points="419.281,383.243 440.288,397.234 395.667,462.158 453,499.416 440.5,518.918       364,469"></polygon><path class="Building" fill="#444" id="MensDorm" d="M566.968,1162.164l9.7-61.332c0,0,16.332-16.63,29.332,3.006V1162" onclick="doActivity('MensDorm','9')"></path><path class="Building" fill="#ccc" id="Silang-Aden_1_" d="M398.938,370.569l42.445,29.523l7.417-11.224l-44.198-29.515L398.938,370.569" onclick="doActivity('MensDorm','9')"></path><polygon class="Building" fill="#ccc" id="P-C-DH" points="344.617,257.598 332.544,276.708 294.773,248.667 264.51,290.907 248.614,270.636  273.667,233.667 244.931,212.737 259.106,195.239  " onclick="doActivity('MensDorm','9')"></polygon><polygon class="Building" fill="#ccc" id="Rizal-Aden_Shade" points="482.046,516.932 465.786,506.112 459.429,514.712 453.604,511.274  427.546,547.805 450.03,562.52  " onclick="doActivity('MensDorm','9')"></polygon><polygon class="Building" fill="#ccc" id="Aden-SWA" points="559.802,601.785 573.446,580.96 480.65,518.918 466.813,539.445 	" onclick="doActivity('MensDorm','9')"></polygon><polygon class="Building" fill="#ccc" id="SH-Rizal_shade" points="480.885,692.112 490.73,675.426 358.5,583.5 346,602.073 	" onclick="doActivity('MensDorm','9')"></polygon><polygon class="Building" fill="#444" id="Vath" points="329.32,523.441 335.32,514.48 306.153,496.179 303.625,500.51 265.987,565.014  251.903,555.262 234.653,585.262 248.653,593.512 209.934,662.512 239.903,680.512 245.653,670.762 272.102,686.845  355.986,539.762  " onclick="doActivity('Vath','15')"></polygon><polygon class="Building" fill="#444" id="SacredHeart" points="364.698,673.551 319.901,643.062 346,602.073 440.408,665.286 412.141,704.844  387.971,688.633 336.018,765.154 341.923,768.908 376.071,716.666 418.783,743.113 383.434,796.316 395.764,805.144  373.489,838.178 419.816,868.481 394.986,906.678 335.07,866.452 321.595,885.497 228.315,821.524 237.413,808.324 229.283,802.61 251.753,768.906 273.637,783.097 267.038,792.497 308.794,820.836 317.611,807.385 280.534,783.449 306.146,745.55  314.885,749.757  " onclick="doActivity('SacredHeart','16')"></polygon><polygon class="Building" fill="#444" id="HospitalCanteen" points="392.342,911.078 439.948,900.445 471.576,995.229 422.687,1006.286  " onclick="doActivity('HospitalCanteen','17')"></polygon><polygon class="Building" fill="#444" id="Annex" points="126.219,845.147 154.885,862.146 164.077,846.612 177.39,854.527 236.885,732.48  207.552,716.147 174.219,781.48 162.886,775.147  " onclick="doActivity('Annex','18')"></polygon><polygon class="Building" fill="#444" id="Rizal" points="397.002,527.815 358.5,583.5 459.326,653.774 497.75,593.75 	" onclick="doActivity('Rizal','19')"></polygon><polygon class="Building" fill="#444" id="Chapel" points="275.371,209.355 304.371,161.688 351.871,193.521 322.333,242.667 	" onclick="doActivity('Chapel','20')"></polygon><polygon class="Building" fill="#444" id="DH" points="208.945,131.96 224.501,108.275 298.748,164.785 273.52,206.79 209.041,155.119  218.255,140.414  " onclick="doActivity('DH','21')"></polygon><polygon class="Building" fill="#444" id="Parking_Lot" points="227.038,84.355 275.371,18.355 378.372,105.022 329.705,168.355 	" onclick="doActivity('Parking_Lot','22')"></polygon><polygon class="Building" fill="#444" id="Silang" points="157.757,441.412 178.039,450.341 175.535,455.805 203.367,467.305 233.702,372.805  228.077,369.43 231.202,349.805 243.702,344.305 271.327,445.616 319.702,431.682 289.535,328.138 301.535,324.805  321.202,338.471 319.535,350.805 387.701,396.805 415.701,341.805 315.702,280.805 196.702,320.305  " onclick="doActivity('Silang','23')"></polygon><polygon class="Building selected" id="Aden" points="455.418,378.855 400.252,462.332 525.164,545.461 580.332,463.855 	" onclick="doActivity('Aden','24')"></polygon><polygon class="Building" fill="#444" id="Perfecto" points="478.34,304.906 458.783,338.106 325.333,244 355.257,195.239 476.09,277.862  466.258,297.239 	" onclick="doActivity('Perfecto','25')"></polygon><polygon class="Building" fill="#444" id="CCA" points="116.552,687.012 124.886,682.012 148.886,691.678 156.219,686.845 184.886,696.678  192.219,717.345 146.219,789.012 137.552,787.012 130.552,793.345 116.552,789.345  " onclick="doActivity('CCA','26')"></polygon><polygon class="Building" fill="#444" id="Hahn" points="543.25,591.423 595.25,624.327 496.168,806.327 438.301,769.327 	" onclick="doActivity('Hahn','27')"></polygon><polygon class="Building" fill="#444" id="AdenResearch" points="526.584,546.3 544.12,557.218 557.584,534.301 564.916,534.301  578.666,509.884 568.916,503.134 574.916,493.884 565.893,488.031  " onclick="doActivity('AdenResearch','28')"></polygon><polygon class="Building" fill="#444" id="PrinceBernhardGym" points="127.15,516.011 131.483,517.678 134.816,505.678 155.15,513.344  151.15,525.515 197.816,543.011 201.733,532.081 222.912,539.497 219.113,550.86 224.983,552.747 185.483,664.248 175.81,661.411 170.681,675.817 158.983,672.081 157.316,677.345 102.15,656.011 103.816,650.581 93.149,646.248 98.654,630.886 86.816,626.414 " onclick="doActivity('PrinceBernhardGym','29')"></polygon><polygon class="Building" fill="#444" id="CardjinHall" points="704.606,944.788 684.574,922.561 678.694,930.724 665.216,915.768    632.443,961.25 627.273,955.371 640.922,938.873 626.1,919.989 611.586,937.537 605.434,930.543 618.68,912.689 599.404,890.66    600.44,889.266 587.512,874.49 561.201,909.951 532.17,945.85 551.51,970.034 559.683,959.237 572.817,974.246 590.18,950.848    590.28,950.963 594.506,945.269 596.822,947.904 589.222,957.835 600.385,970.993 608.18,960.813 621.691,976.172 621.646,976.236    637.094,993.379 637.094,993.379 655.157,1013.422  " onclick="doActivity('CardjinHall','30')"></polygon><polygon class="Building" fill="#444" id="StudentCouncil" points="558.786,1095.065 557.061,1101.606 546.938,1096.11 521,1164 539.695,1164 541.203,1164    562.221,1164 579.353,1099.638  " onclick="doActivity('StudentCouncil','31')"></polygon><polygon class="Building" fill="#ccc" id="DB-Hahn" points="473.75,826.408 488.023,820.4 483.292,798.095 464.154,785.857  " onclick="doActivity('StudentCouncil','31')"></polygon><polygon class="Building" fill="#444" id="DB" points="512.808,811.039 464.154,829.417 481.809,883.419 531.346,862.642  " onclick="doActivity('DB','33')"></polygon><polygon class="Building" fill="#444" id="AteMitz" points="414.282,702.563 437.895,663.082    450.735,671.724 426.25,710.5  " onclick="doActivity('AteMitz','34')"></polygon><ellipse class="fountain" id="Fountain_1_" cx="328.173" cy="490.979" rx="8.067" ry="8.459" transform="matrix(0.9675 0.2529 -0.2529 0.9675 134.8104 -67.0253)" onclick="doActivity('AteMitz','34')"></ellipse><polygon class="outdoor_stairs" id="Silang Exit Stairs 1" points="273.166,276.667    276.222,284.591 263.122,288.986 259.594,280.855  " onclick="doActivity('AteMitz','34')"></polygon><polygon class="outdoor_stairs" id="Silang Entry Stairs" points="239.804,287.009    242.976,294.888 229.94,299.473 226.295,291.395  " onclick="doActivity('AteMitz','34')"></polygon><polygon class="outdoor_stairs" id="Silang Side Stairs" points="268.574,287.667 277.299,284.548    274.986,278.49 282.028,275.95 287.054,289.765 271.5,294.833  " onclick="doActivity('AteMitz','34')"></polygon><polygon class="outdoor_stairs" id="VathStairs" points="319.901,643.062 301.976,634.463 355.986,539.733 379.354,553.805  " onclick="doActivity('AteMitz','34')"></polygon><polygon class="outdoor_stairs" id="GSteps" points="306.153,496.179 285.663,493.19 228.315,587.147 241.214,606.77    " onclick="doActivity('AteMitz','34')"></polygon><polygon class="outdoor_stairs" id="PBS_Stairs1" points="208.091,599.459 239.711,609.447 221.144,642.535 196,633.589  " onclick="doActivity('AteMitz','34')"></polygon><polygon class="outdoor_stairs" id="PBS_Stairs2" points="104,521.25 124.826,527.346 99.317,597.262 78.75,587.25  " onclick="doActivity('AteMitz','34')"></polygon><polygon class="outdoor_stairs" id="AnnexBridge" points="209.617,717.297 221.073,723.676 224.136,716.147 262.386,716.147  305.219,750.147 317.886,752.48 324.886,742.48 267.251,702.563 218.886,702.563  " onclick="doActivity('AteMitz','34')"></polygon><polygon class="outdoor_stairs" id="VathStairs1_2_" points="389.151,539.169 379.652,553.805 353.16,538.032  362.75,522.625   " onclick="doActivity('AteMitz','34')"></polygon></svg>